<svg xmlns="http://www.w3.org/2000/svg" width="140" height="140" viewBox="0 0 140 140">
    <g fill="none">
        <ellipse cx="69.987" cy="70.033" fill="#FFBA00" rx="69.916" ry="69.799"/>
        <g>
            <path fill="#EBF0F3" d="M47.26.027H3.337C1.495.027.002 1.517.002 3.355v73.322c0 1.838 1.493 3.328 3.334 3.328H59.12c1.841 0 3.334-1.49 3.334-3.328v-61.48L47.26.026z" transform="translate(38.758 30.017)"/>
            <g fill="#D5D6DB">
                <path d="M42.563 11.868c0 1.838 1.492 3.328 3.333 3.328h11.86L42.564.027v11.841zM.111 71.673H51.513V74.267H.111zM.111 64.522H51.513V67.116H.111zM.111 57.376H51.513V59.97H.111z" transform="translate(38.758 30.017) translate(4.698)"/>
            </g>
            <path fill="#44C4A1" d="M4.809 50.224H33.326V52.818H4.809z" transform="translate(38.758 30.017)"/>
            <path fill="#FCD462" d="M22.598 7.177c-9.286 0-16.813 7.515-16.813 16.785 0 7.018 4.317 13.023 10.442 15.53l6.37-15.53V7.177z" transform="translate(38.758 30.017)"/>
            <path fill="#44C4A1" d="M39.511 13.84c-2.774-5.459-8.436-9.208-14.988-9.208v16.785l14.988-7.577z" transform="translate(38.758 30.017)"/>
            <path fill="#27A2DB" d="M40.786 15.763l-14.988 7.576 13.944 9.381c1.811-2.678 2.87-5.906 2.87-9.38-.001-2.73-.667-5.3-1.826-7.577z" transform="translate(38.758 30.017)"/>
            <path fill="#E56353" d="M18.153 40.765c1.965.804 4.114 1.255 6.37 1.255 5.805 0 10.923-2.937 13.944-7.404l-13.944-9.38-6.37 15.529z" transform="translate(38.758 30.017)"/>
        </g>
    </g>
</svg>
