<svg xmlns="http://www.w3.org/2000/svg" width="140" height="140" viewBox="0 0 140 140">
    <g fill="none">
        <circle cx="70" cy="70" r="70" fill="#FFBA00"/>
        <circle cx="69.576" cy="70.424" r="49.212" fill="#324A5E"/>
        <path fill="#FFF" d="M53.63 33.822c4.87-2.12 10.269-3.277 15.946-3.277 22.012 0 39.879 17.676 39.879 39.455s-17.867 39.455-39.88 39.455c-22.012 0-39.878-17.676-39.878-39.455 0-16.19 9.851-30.093 23.933-36.178"/>
        <g fill="#324A5E" transform="translate(36.485 36.485)">
            <circle cx="33.619" cy="2.411" r="2.258"/>
            <circle cx="33.619" cy="64.685" r="2.258"/>
            <circle cx="64.756" cy="33.548" r="2.258"/>
            <circle cx="2.482" cy="33.548" r="2.258"/>
        </g>
        <g fill="#4CDBC4">
            <path d="M0.233 0.036H3.505V23.703000000000003H0.233z" transform="translate(67.879 46.667)"/>
            <path d="M0.233 22.049H23.635V25.358H0.233z" transform="translate(67.879 46.667)"/>
        </g>
        <circle cx="70" cy="70" r="4.667" fill="#FF7058"/>
    </g>
</svg>
