<svg xmlns="http://www.w3.org/2000/svg" width="140" height="140" viewBox="0 0 140 140">
    <g fill="none">
        <ellipse cx="69.987" cy="70.033" fill="#FFBA00" rx="69.915" ry="69.798"/>
        <path fill="#F2F2F2" d="M26.313 26.5v87.065h87.21l-87.21-87.064zM39.88 59.202l40.888 40.82H39.88v-40.82z"/>
        <path fill="#F05540" d="M93.664 83.56L104.514 72.728 113.661 81.843 102.811 92.674z"/>
        <path fill="#CDD5DF" d="M90.259 80.161L101.109 69.329 104.531 72.711 93.664 83.56z"/>
        <path fill="#334A5E" d="M49.56 33.556L47.342 26.535 54.392 28.732z"/>
        <path fill="#FFCF5C" d="M52.311 42.31l-3.18-10.042-1.806-5.767 5.777 1.802 10.042 3.141.085.086c.241 1.013.035 2.06-.687 2.78-.774.773-1.96.962-3.06.619.343 1.098.154 2.283-.62 3.055-.774.773-1.96.962-3.06.618.343 1.099.171 2.283-.62 3.056-.722.721-1.822.927-2.87.652z"/>
        <path fill="#65C5B8" d="M62.542 34.311c-.774.772-1.943.961-3.06.618.343 1.116.154 2.283-.62 3.055-.774.773-1.943.962-3.06.618.343 1.116.154 2.283-.62 3.056-.739.738-1.84.944-2.888.67L90.242 80.16l10.85-10.831-37.845-37.782c.223 1.013 0 2.043-.705 2.764z"/>
        <path fill="#334A5E" d="M49.13 32.268L47.325 26.501 53.102 28.303z"/>
        <g fill="#ABB2B9">
            <path d="M8.722 72.072H10.665V78.38900000000001H8.722zM18.42 72.072H20.363000000000003V78.38900000000001H18.42zM28.1 72.072H30.043000000000003V78.38900000000001H28.1zM37.798 72.072H39.741V78.38900000000001H37.798zM47.478 72.072H49.421V78.38900000000001H47.478zM57.176 72.072H59.119V78.38900000000001H57.176zM66.856 72.072H68.79899999999999V78.38900000000001H66.856zM76.554 72.072H78.497V78.38900000000001H76.554zM.004.028H6.3309999999999995V1.968H.004zM.004 9.709H6.3309999999999995V11.649H.004zM.004 19.374H6.3309999999999995V21.314H.004zM.004 29.055H6.3309999999999995V30.995H.004zM.004 38.719H6.3309999999999995V40.659H.004zM.004 48.401H6.3309999999999995V50.341H.004zM.004 58.082H6.3309999999999995V60.022H.004zM.004 67.746H6.3309999999999995V69.68599999999999H.004z" transform="translate(26.309 35.176)"/>
        </g>
    </g>
</svg>
