<svg xmlns="http://www.w3.org/2000/svg" width="140" height="140" viewBox="0 0 140 140">
    <g fill="none">
        <path fill="#FFBA00" d="M139.893 71.019c-.609 38.608-32.4 69.412-71.009 68.803-38.608-.61-69.413-32.4-68.804-71.008C.69 30.204 32.481-.6 71.09.009c38.608.61 69.412 32.401 68.803 71.01z"/>
        <path fill="#EFC84A" d="M52.937 55.714h-20.52v58.445h.233l-.002-.066c0 2.832 4.554 5.079 10.173 5.079 5.618 0 10.172-2.418 10.172-5.25l-.056-58.208z"/>
        <path fill="#BCDB4D" d="M52.937 55.714h-20.52v58.445h.233l-.002-.066c0 2.832 4.554 5.079 10.173 5.079 5.618 0 10.172-2.418 10.172-5.25l-.056-58.208z"/>
        <ellipse cx="42.82" cy="55.941" fill="#C1ED4A" rx="10.173" ry="5.129"/>
        <path fill="#E05B49" d="M80.064 25.945H60v88.214h-.225l-.001-.066c0 2.832 4.554 5.079 10.173 5.079 5.618 0 10.172-2.247 10.172-5.079l-.056-88.148z"/>
        <ellipse cx="69.947" cy="25.83" fill="#FF6853" rx="10.173" ry="5.128"/>
        <path fill="#45B39C" d="M107.19 77.836H87.038v36.323h-.134l-.002-.066c0 2.832 4.554 5.079 10.172 5.079 5.619 0 10.174-2.208 10.174-5.04l-.058-36.296z"/>
        <ellipse cx="97.075" cy="77.643" fill="#51D1B6" rx="10.173" ry="5.128"/>
        <path fill="#5D5D5D" d="M32.648 55.714h-.231v58.445h.273v-.125c0 2.827 4.37 5.088 10.105 5.095V61.07c-5.735-.008-10.147-2.078-10.147-5.355z" opacity=".2"/>
        <path fill="#5D5D5D" d="M32.676 56.303c.007.054.014.108.024.162.008.04.02.078.03.117.011.047.02.093.035.14.012.04.028.08.042.12.016.044.03.088.047.132.017.041.038.083.057.124.018.04.035.083.056.123.023.045.05.089.074.132.022.037.04.074.063.11.029.048.062.094.093.14l.066.099c.036.05.076.099.115.147.023.029.044.058.067.085.042.05.088.1.133.15.024.026.045.052.07.078.05.051.103.102.156.153.023.022.044.045.068.067.056.052.116.103.175.154.024.02.045.04.07.06.064.055.134.108.203.16l.06.048c.074.055.15.109.228.162l.055.04c.084.056.172.112.26.167.015.008.027.017.04.025.093.057.189.112.286.167l.033.019c.102.057.208.112.314.166l.022.011c.114.058.23.114.348.168l.004.097c.12.055.242.257.367.257h.001c1.753.546 4.001 1.077 6.454 1.08L40.9 50.951c-4.7.453-8.253 2.51-8.253 5.013 0 .089.005.164.014.251.003.035.01.055.015.088z" opacity=".2"/>
        <g fill="#5D5D5D" opacity=".2">
            <path d="M.226 36.642h.05c0-.022-.004-.044-.004-.066 0-.01-.046.066-.046.066zM.355.208L.36 36.642H.276c.073 2.795 4.77 4.963 10.19 4.97V5.254C5.002 5.246.354 3.036.354.208z" transform="translate(86.678 77.517)"/>
        </g>
        <path fill="#5D5D5D" d="M86.93 77.912c.007.054.014.109.024.162.008.04.02.078.03.118.011.046.021.093.034.138.013.04.029.081.043.121.016.044.03.088.047.132.017.042.038.083.057.124.018.04.036.083.056.124.023.044.05.087.074.132.021.036.04.074.063.11.029.047.062.093.094.14.022.033.042.066.066.099.036.05.075.098.115.147.022.028.042.057.066.085.042.05.088.1.133.149l.07.078c.05.051.103.103.156.153.023.023.044.045.068.067.056.052.116.103.175.155l.069.06c.065.054.134.107.203.16l.06.048c.074.054.151.108.229.161l.055.04c.084.056.172.112.26.168l.04.025c.093.056.189.112.286.166l.033.02c.102.056.208.111.314.165.007.005.014.008.022.012.113.058.23.114.348.168l.004.002c.12.055.242.109.367.161 1.754.731 4.002 1.172 6.455 1.176l-1.892-10.165c-4.7.453-8.253 2.535-8.253 5.036 0 .089.004.177.013.264l.016.1zM59.775 25.945h-.005L60 55.941v58.218h-.224l-.002-.066c0 .885.446 1.676 1.228 2.4.003.003.005-.015.007-.014.076.071.155.13.238.199.002.002.005-.002.007 0 .083.069.168.133.257.2.007.005.015.008.022.014.085.062.172.124.262.184l.032.02c.087.059.177.116.27.172.014.01.03.018.045.027.089.054.18.107.273.159l.058.03c.092.05.184.1.279.147l.073.035c.092.046.184.091.28.134.028.014.06.026.089.04.092.04.184.082.279.122l.098.038c.094.039.189.077.285.113.038.014.078.027.116.042.093.034.187.068.283.1.042.015.085.028.128.042.094.031.187.062.283.091l.149.043c.092.028.183.055.277.08.053.015.107.028.16.042.092.024.184.05.278.071.058.015.117.027.175.04.091.022.182.043.275.063l.188.038c.091.018.181.037.274.054.064.012.132.022.198.033.09.017.181.033.274.047l.205.03.277.04c.07.009.143.016.215.024.092.011.183.023.276.032.074.008.149.014.223.02.092.009.184.018.277.025l.23.016c.093.005.185.013.279.017.077.004.157.006.235.009.094.005.187.008.28.01.08.003.117.003.197.004l.225.004V30.958c-5.736-.008-10.058-2.008-10.058-5.013z" opacity=".2"/>
        <path fill="#5D5D5D" d="M59.803 26.1c.007.053.013.107.024.161.008.04.02.078.03.118.011.046.02.093.034.139.013.04.029.08.043.12.016.045.03.089.047.133.017.041.038.082.057.124.018.04.035.082.056.123.023.045.05.088.074.132.021.037.04.074.063.111.028.047.062.093.093.14.022.032.042.066.066.098.036.05.076.098.115.147.023.029.043.057.067.086.042.05.088.1.133.149.024.026.045.052.07.077.05.052.103.103.156.154.023.023.044.045.068.067.056.052.115.103.175.154.023.02.045.04.07.06.064.055.134.108.203.161l.06.048c.073.054.15.108.228.161l.054.04c.085.056.172.112.262.167l.04.026c.092.056.187.112.285.166l.033.02c.102.056.207.112.314.166l.022.011c.113.058.23.114.348.168l.003.002c.12.055.243.108.368.16 1.753.732 4.001 1.174 6.454 1.176l-1.89-10.164c-4.701.453-8.254 2.535-8.254 5.036 0 .089.005.176.014.264.004.033.01.066.015.098z" opacity=".2"/>
    </g>
</svg>
