<svg xmlns="http://www.w3.org/2000/svg" width="250" height="27" viewBox="0 0 250 27">
    <path fill="#212121" d="M133.394 6.982c-.594-.377-1.306-.64-2.139-.828l-.713-.114c-.789-.081-1.582-.119-2.376-.113h-4.198v.679h1.267v15.067h-1.267v.717h4.515c.833 0 1.505-.038 2.06-.076.316-.038.593-.076.79-.115.634-.15 1.19-.337 1.665-.64 1.11-.678 1.9-1.656 2.494-2.937.595-1.28.872-2.825.872-4.558 0-1.696-.277-3.165-.79-4.37-.477-1.242-1.229-2.148-2.18-2.712zm-1.07 10.058c0 1.695-.236 2.9-.672 3.615-.277.414-.634.679-1.11.868-.383.123-.784.186-1.188.187h-.356c-.08 0-.159-.037-.238-.037V6.603h.158c.633 0 1.188.113 1.624.265.437.187.792.414 1.03.79.516.679.753 2.072.753 4.257v5.124zm15.143 3.579c-.713.715-1.784 1.054-3.29 1.054h-.912v-7.496c.873 0 1.466.227 1.865.716.355.452.553 1.242.593 2.45h.633v-6.82h-.633c-.04 1.054-.238 1.808-.594 2.223-.397.452-.991.678-1.864.678v-6.82h.911c1.309 0 2.26.264 2.856.754.593.489 1.07 1.394 1.466 2.748h.594l-.158-4.18H138.43v.679h1.268v15.067h-1.267v.716h10.78l.239-5.424h-.674c-.2 1.732-.635 2.938-1.31 3.653v.002zM14.105 23.51c-1.063 1.146-2.798 1.682-5.122 1.682H7.525V13.19c1.38 0 2.325.381 2.916 1.107.55.765.868 2.065.985 3.977h.945V7.379h-.945c-.079 1.682-.394 2.867-.985 3.555-.551.688-1.537 1.032-2.916 1.07V1.109h1.42c2.087 0 3.584.383 4.53 1.185.906.765 1.694 2.256 2.245 4.397h.985L16.43 0H0v1.108h1.97v24.084H0v1.147h16.864l.354-8.678h-1.025c-.314 2.753-.985 4.703-2.088 5.849zm14.813-12.984c-.396-.264-.99-.644-1.741-1.136-3.088-1.969-4.633-3.673-4.633-5.112 0-.908.358-1.704 1.07-2.309.713-.644 1.623-.984 2.651-.984 1.425 0 2.653.529 3.643 1.589.95 1.06 1.7 2.613 2.137 4.658h.95V.342h-.95l-.87 1.325c-.715-.524-1.501-.944-2.337-1.25-.76-.273-1.564-.414-2.374-.417-1.9 0-3.444.644-4.67 1.97-1.228 1.288-1.821 2.99-1.821 5.036 0 1.817.395 3.37 1.226 4.658.832 1.288 2.455 2.763 4.87 4.353 2.097 1.364 3.442 2.463 3.997 3.22.554.795.87 1.628.87 2.612 0 1.174-.395 2.12-1.186 2.879-.753.756-1.742 1.136-2.93 1.136-1.623 0-2.93-.644-3.958-1.856-1.03-1.25-1.701-3.03-1.98-5.339h-.91v7.876h.91l1.07-1.326c.83.568 1.662 1.023 2.453 1.326.832.302 1.623.454 2.415.454 2.018 0 3.681-.757 4.988-2.235 1.266-1.476 1.938-3.37 1.938-5.716 0-1.856-.395-3.447-1.187-4.81-.751-1.362-1.98-2.612-3.64-3.71zm25.49-2.116l-.2-8.41H36.053l-.238 8.41h1.032c.475-2.638 1.109-4.511 1.902-5.658.793-1.108 1.903-1.682 3.25-1.682h.318v24.122h-2.814v1.147h11.26v-1.147h-2.776V1.071h.317c1.349 0 2.418.574 3.212 1.644.793 1.109 1.427 3.02 1.942 5.696h.952zm9.557-8.41h-1.63l-1.47 4.932-6.045 20.26h-1.79v1.147h5.606v-1.147h-2.504l1.988-6.69h5.407l1.79 6.69h-1.99v1.147h8.986v-1.147h-1.471L63.965 0zm-3.1 17.28h-2.348l2.346-8.22.08-.268 2.266 8.487h-2.345zm28.05-15.598C87.9 1.07 86.764.65 85.465.383c-.367-.077-.772-.115-1.178-.19C83.019.061 81.745-.004 80.47 0h-6.779V1.11h2.03v24.084h-2.03v1.147h7.306c1.3 0 2.395-.038 3.289-.115.527-.077.933-.115 1.3-.191 1.014-.23 1.907-.573 2.678-1.032 1.746-1.07 3.085-2.599 4.019-4.664.934-2.064 1.38-4.548 1.38-7.34 0-2.713-.406-5.046-1.217-6.996-.812-1.95-1.99-3.402-3.533-4.32h.001zm-1.787 16.094c0 2.752-.364 4.663-1.055 5.81-.446.65-1.015 1.108-1.786 1.376-.528.191-1.178.268-1.908.268h-.569c-.122 0-.243 0-.365-.038V1.11h.203c1.056 0 1.948.153 2.639.42.73.269 1.3.69 1.705 1.224.772 1.07 1.137 3.364 1.137 6.805v8.219zM112.701 3.14c-.877-.975-1.94-1.771-3.13-2.345-1.1-.521-2.307-.793-3.53-.794-1.196.006-2.376.277-3.45.794-1.124.529-2.166 1.322-3.09 2.345-1.25 1.323-2.219 2.879-2.848 4.574-.602 1.702-.923 3.63-.923 5.785 0 2.118.321 4.047.923 5.748.622 1.7 1.592 3.257 2.849 4.577.875.975 1.938 1.772 3.128 2.342 1.124.53 2.247.833 3.41.833 1.204 0 2.368-.303 3.53-.833 1.165-.567 2.168-1.322 3.132-2.343 1.243-1.362 2.204-2.912 2.807-4.576.602-1.702.882-3.63.882-5.747 0-2.156-.281-4.084-.922-5.786-.6-1.691-1.54-3.247-2.767-4.574h-.001zm-2.81 14.594c0 2.874-.28 4.953-.881 6.277-.643 1.286-1.605 1.929-2.97 1.929-1.323 0-2.286-.644-2.928-1.929-.601-1.324-.923-3.403-.923-6.277V9.227c0-2.874.322-4.953.923-6.24.602-1.285 1.605-1.928 2.929-1.928 1.364 0 2.326.644 2.969 1.929.602 1.286.882 3.365.882 6.239v8.507zm58.378-1.41L164.504 0h-8.168v1.148h1.923V25.23h-1.923v1.109h5.086V25.23h-1.882V2.22l5.887 24.12h1.32l6.527-23.47V25.23h-2.123v1.109h9.29V25.23h-1.682V1.148h1.682V0h-7.648l-4.524 16.324zm14.927-15.176h1.928V25.23h-1.928v1.109h9.642V25.23h-1.969V1.148h1.97V0h-9.643v1.148zm25.263.011h2.26v14.987L202.408 0h-7.503v1.16h2.098v24.332h-2.1v1.12h5.65v-1.12h-2.3V3.631l12.103 23.368h1.614V1.159h2.218V0h-5.73v1.16zM226.499 0h-1.63l-1.47 4.97-6.004 20.261h-1.83v1.109h5.606V25.23h-2.505l1.99-6.69h5.405l1.791 6.69h-1.989v1.109h8.987V25.23h-1.432l-6.92-25.23h.002zm-3.1 17.318h-2.345l2.345-8.257.079-.23 2.267 8.487h-2.346zm21.813-6.777c-.436-.264-1.029-.682-1.782-1.175-3.047-1.933-4.59-3.64-4.59-5.08 0-.91.355-1.706 1.068-2.352.713-.644 1.583-.947 2.651-.947 1.426 0 2.653.53 3.603 1.593.99 1.061 1.741 2.615 2.177 4.663h.91V.303h-.91l-.872 1.367c-.722-.52-1.506-.953-2.335-1.288-.763-.261-1.567-.39-2.376-.38-1.9 0-3.483.644-4.67 1.934-1.226 1.327-1.86 2.995-1.86 5.08 0 1.82.436 3.374 1.267 4.665.83 1.288 2.453 2.767 4.867 4.321 2.099 1.403 3.444 2.503 3.999 3.262.553.758.831 1.63.83 2.616 0 1.138-.355 2.123-1.148 2.88-.75.722-1.742 1.101-2.928 1.101-1.623 0-2.967-.606-3.958-1.858-1.03-1.213-1.703-2.995-1.98-5.345h-.95v7.885h.95l1.069-1.326c.752.56 1.577 1.019 2.453 1.366.793.264 1.624.417 2.416.417 2.019 0 3.68-.721 4.948-2.2 1.306-1.479 1.939-3.375 1.939-5.726 0-1.857-.357-3.488-1.15-4.815-.79-1.365-1.976-2.616-3.64-3.717h.002z"/>
</svg>
