<svg xmlns="http://www.w3.org/2000/svg" width="73" height="40" viewBox="0 0 73 40">
    <defs>
        <radialGradient id="prefix__a" cx="84.675%" cy="80.403%" r="121.336%" fx="84.675%" fy="80.403%" gradientTransform="matrix(1 0 0 .8014 0 .16)">
            <stop offset="0%" stop-color="#CEAC31"/>
            <stop offset="100%" stop-color="#D07F3E"/>
        </radialGradient>
        <linearGradient id="prefix__b" x1="-.001%" x2="99.998%" y1="50.001%" y2="50.001%">
            <stop offset="0%" stop-color="#D07F3E"/>
            <stop offset="100%" stop-color="#D0AB3D"/>
        </linearGradient>
    </defs>
    <g fill="none" transform="translate(-1)">
        <path fill="#D07F3E" d="M10.147 25.155s.967 2.553 2.959 4.37c1.993 1.818 5.806 4.487 10.074 5.62 4.269 1.135 9.904 1.818 13.832 1.76 3.927-.057 8.594-.453 12.75-1.475 4.154-1.022 9.049-3.177 9.049-3.177l-1.65-1.08s-6.773 2.839-10.928 3.293c-4.156.454-8.879 1.304-15.88.112-7.001-1.19-11.213-4.03-12.523-5.506-.81-.924-1.517-1.933-2.107-3.009l-.226-3.517-.798-2.5L11 24.022l-.853 1.133zM25.06 4.779S21.53 5.914 18.286 7.73c-3.246 1.817-5.52 4.257-6.83 6.187-1.309 1.93-2.276 4.37-2.333 6.64-.056 2.271.796 4.031.796 4.031l1.138-.68 3.7-4.03s.056-1.76.626-3.293c.57-1.533 1.538-2.781 2.391-3.292.853-.512 2.732-.852 2.732-.852l5.806-5.676-1.253-1.986z"/>
        <path fill="url(#prefix__a)" d="M44.144 3.206s2.219-.169 5.749.626c3.527.794 6.374 2.269 8.14 3.52 1.763 1.248 3.796 3.33 4.193 4.125.4.794.671 2.89.73 4.933.056 2.043-.905 4.372-1.815 5.732-.913 1.364-2.47 2.862-3.154 3.203-.682.338-2.136 2.076-1.28.945.859-1.129 3.343-4.183 4.121-6.726.754-2.472.628-5.323-.878-6.044l.308-1.361S59.24 9.866 57.76 8.617c-1.48-1.25-3.244-2.271-5.291-3.01-2.052-.735-5.01-1.077-5.01-1.077l-3.315-1.324z"/>
        <path fill="#007CBF" d="M36.472.806c10.737 0 19.494 8.696 19.494 19.355 0 10.66-8.758 19.355-19.494 19.355-10.737 0-19.494-8.694-19.494-19.355 0-10.66 8.756-19.355 19.494-19.355z"/>
        <path fill="url(#prefix__b)" d="M57.16 31.172s-6.772 2.838-10.927 3.293c-4.156.454-8.879 1.304-15.88.112-5.815-.99-9.7-3.112-11.6-4.65V33.4c1.409.738 2.894 1.324 4.428 1.746 4.27 1.134 9.905 1.817 13.832 1.759 3.927-.057 8.594-.453 12.75-1.475 4.154-1.022 9.049-3.177 9.049-3.177l-1.652-1.081z"/>
        <path fill="#ECB731" d="M60.862 9.932c-1.427 0-2.415-1.13-2.202-2.514.213-1.384 1.549-2.513 2.977-2.513 1.427 0 2.416 1.129 2.202 2.513-.212 1.385-1.55 2.514-2.977 2.514zM3.488 12.215l8.936-1.078-.29.782c-.98 2.656-4.137 11.222-4.377 11.988-.284.908.114 1.306.57 1.248.456-.056 1.137-.396 1.934-1.133.797-.74 1.935-1.932 2.789-2.839.854-.907 2.674-3.518 2.674-3.518l2.22-5.79 5.92-.057S19.37 23.852 19.14 24.476c-.228.625-.286 1.475.227 1.475s1.424-.795 2.049-1.475c.626-.681 1.594-1.873 1.594-1.873s.113-1.93.627-2.951c.512-1.022 1.65-3.065 3.47-4.427 1.822-1.363 4.042-2.669 6.717-3.293 2.675-.625 4.27-.794 5.92-.68 1.321.093 2.605.481 3.756 1.135.797.454 1.138.964 1.366 1.25.229.282.513.85.513.85l1.537-2.781h6.033L47.315 24.76s-.399.966 0 1.646c.398.682.853 1.193 2.162 1.193 1.31 0 3.587-.965 3.587-.965l.74 1.645s-2.22.908-4.04 1.022c-1.824.113-3.417-.17-4.954-.625-1.536-.453-2.277-1.19-2.733-1.815-.454-.625-.512-1.591-.512-1.591s-1.65 1.76-3.755 2.67c-2.107.908-3.246 1.305-5.807 1.247-2.073-.05-4.103-.594-5.919-1.588-1.365-.738-1.935-1.704-2.277-2.271-.34-.567-.626-1.475-.626-1.475s-1.137 1.93-2.332 2.837c-1.196.909-2.79 1.704-4.383 1.874-1.593.17-2.505-.17-3.072-.625-.57-.455-.74-1.533-.4-2.782.342-1.247 1.196-3.575 1.196-3.575s-3.3 3.632-4.782 4.71c-1.478 1.078-2.902 2.384-5.007 2.326-2.107-.054-2.676-1.134-3.017-1.644-.342-.51-.113-1.703.343-2.894.454-1.192 3.015-7.89 3.301-8.742.284-.852.284-1.987-.4-2.156-.683-.17-1.31-.17-1.31-.17l.17-.797zm38.19 1.191c-2.407-1.183-5.937.302-7.626 2.1-1.15 1.226-3.075 4.088-3.813 6.584-.74 2.497-.513 3.972 1.138 4.71 1.65.74 3.073.511 4.269.172 1.194-.341 2.617-1.306 3.927-2.895 1.307-1.59 3.017-4.371 3.529-6.357.513-1.987-.257-3.742-1.423-4.314z"/>
        <path fill="#ECB731" d="M55.795 12.1l8.48-1.078-5.805 13.452s-.4.965.113 1.362c.513.398.912.17 1.482-.397.568-.567 1.877-2.27 1.877-2.27l.626.34s-1.708 2.327-2.505 3.064c-.797.737-2.105 1.533-2.903 1.875-.797.34-2.162.284-2.79.113-.625-.17-1.535-.567-1.592-1.646-.056-1.078.625-2.383.625-2.383l4.269-9.933s.456-1.136-.056-1.476c-.511-.342-1.821-.228-1.821-.228v-.794z"/>
        <ellipse cx="67.737" cy="33.076" fill="#FFF" rx="6.23" ry="6.192"/>
        <g fill="#E78228">
            <path d="M11.396 9.75l-.364 1.646h-1.52l.364-1.646H8.153l.323-1.498H10.2l.364-1.633h1.52l-.364 1.633h1.152c.446-2.76-1.023-5.473-3.584-6.624C6.725.478 3.705 1.174 1.916 3.33c-1.79 2.155-1.904 5.234-.28 7.515-.057-.276-.085-.557-.086-.839 0-2.7 1.156-7.445 5.05-7.445 1.756 0 2.74.724 2.74 2.212 0 2.595-2.805 4.084-4.838 4.34-.04.302-.06.607-.063.913 0 1.404.706 1.828 1.54 1.828 1.007 0 1.862-.574 2.74-1.361 0 1.988-1.396 2.7-3.159 2.857 2.855.538 5.704-.957 6.868-3.603h-1.032v.003z" transform="translate(61.018 25.806)"/>
            <path d="M7.305 3.69c-1.198 0-2.182 2.404-2.633 4.403 1.97-.022 3.36-1.702 3.382-3.212.002-.446-.106-1.19-.749-1.19z" transform="translate(61.018 25.806)"/>
        </g>
    </g>
</svg>
