<svg xmlns="http://www.w3.org/2000/svg" width="140" height="15" viewBox="0 0 140 15">
    <path fill="#212121" d="M74.7 3.879c-.332-.21-.73-.356-1.197-.46l-.4-.063c-.441-.045-.885-.066-1.33-.063h-2.35v.377h.708v8.37h-.709v.399h2.528c.467 0 .843-.021 1.154-.042.177-.022.332-.043.443-.064.355-.083.666-.188.932-.356.621-.377 1.064-.92 1.397-1.631.333-.712.488-1.57.488-2.533 0-.942-.155-1.758-.443-2.428-.267-.69-.688-1.193-1.22-1.506zm-.598 5.588c0 .941-.133 1.61-.377 2.008-.155.23-.355.377-.621.482-.215.069-.44.104-.666.104h-.2c-.044 0-.088-.02-.133-.02V3.669h.09c.354 0 .664.062.909.147.244.104.443.23.576.438.29.377.422 1.152.422 2.366v2.846zm8.48 1.988c-.4.397-1 .586-1.843.586h-.51V7.876c.488 0 .82.126 1.044.398.199.25.31.69.332 1.36h.355V5.847h-.355c-.022.586-.133 1.004-.333 1.235-.222.251-.555.377-1.044.377v-3.79h.51c.734 0 1.266.148 1.6.42.332.271.599.774.82 1.527h.334l-.089-2.323h-5.882v.377h.71v8.371h-.71v.398h6.038l.133-3.014h-.378c-.111.963-.355 1.633-.733 2.03zM7.898 13.062c-.596.637-1.567.934-2.869.934h-.816V7.328c.772 0 1.302.212 1.633.615.308.425.486 1.147.551 2.21h.53V4.098h-.53c-.044.935-.22 1.593-.551 1.976-.309.382-.86.573-1.633.594V.616h.795c1.169 0 2.007.213 2.537.659.507.425.949 1.253 1.257 2.442h.552L9.201 0H0v.616h1.103v13.38H0v.637h9.444l.198-4.82h-.574c-.176 1.529-.552 2.612-1.169 3.249zm8.295-7.213c-.222-.147-.554-.358-.975-.632-1.73-1.094-2.594-2.04-2.594-2.84 0-.504.2-.946.599-1.282.399-.358.909-.547 1.485-.547.798 0 1.485.294 2.04.883.531.589.952 1.451 1.196 2.587h.532V.19h-.532l-.487.736c-.4-.29-.84-.524-1.309-.694-.426-.152-.876-.23-1.33-.232-1.063 0-1.928.358-2.614 1.095-.688.715-1.02 1.66-1.02 2.797 0 1.01.22 1.872.687 2.588.465.715 1.374 1.535 2.726 2.419 1.175.757 1.928 1.367 2.239 1.788.31.442.487.905.487 1.451 0 .653-.221 1.179-.664 1.6-.422.42-.976.63-1.64.63-.91 0-1.641-.357-2.217-1.03-.577-.694-.953-1.683-1.109-2.966h-.51v4.375h.51l.6-.737c.464.316.93.569 1.373.737.466.168.909.252 1.352.252 1.13 0 2.062-.42 2.793-1.241.71-.82 1.086-1.872 1.086-3.176 0-1.031-.221-1.915-.665-2.672-.42-.757-1.108-1.451-2.039-2.061zM30.47 4.673L30.357 0H20.189l-.133 4.673h.578c.266-1.466.62-2.506 1.065-3.143.444-.616 1.066-.935 1.82-.935h.178v13.401h-1.576v.637h6.305v-.637h-1.554V.595h.178c.755 0 1.354.319 1.798.914.444.615.8 1.677 1.088 3.164h.533zM35.82 0h-.913l-.823 2.74-3.385 11.256h-1.002v.637h3.14v-.637h-1.403l1.113-3.717h3.028l1.002 3.717h-1.114v.637h5.032v-.637h-.824L35.821 0zm-1.736 9.6H32.77l1.313-4.566.045-.149 1.27 4.715h-1.314zM49.793.935c-.57-.34-1.205-.573-1.933-.722-.205-.043-.432-.064-.66-.106-.71-.073-1.423-.108-2.136-.107h-3.796v.616h1.136v13.38h-1.136v.637h4.091c.728 0 1.341-.02 1.842-.064.295-.042.522-.064.727-.106.568-.127 1.069-.318 1.5-.573.978-.595 1.728-1.444 2.25-2.591.524-1.147.774-2.527.774-4.078 0-1.507-.227-2.803-.682-3.887-.454-1.082-1.114-1.89-1.978-2.4zm-1.001 8.941c0 1.529-.204 2.59-.591 3.228-.25.361-.568.616-1 .765-.296.106-.66.148-1.069.148h-.318c-.069 0-.136 0-.205-.02V.615h.114c.591 0 1.09.085 1.478.234.409.149.727.383.954.68.433.594.637 1.868.637 3.78v4.566zm14.32-8.132c-.49-.541-1.086-.984-1.752-1.302-.616-.29-1.292-.44-1.977-.441-.67.003-1.33.154-1.932.44-.63.294-1.213.735-1.73 1.303-.7.736-1.243 1.6-1.595 2.542-.337.945-.517 2.016-.517 3.213 0 1.177.18 2.249.517 3.194.348.944.891 1.81 1.595 2.542.49.542 1.085.985 1.752 1.302.63.294 1.258.462 1.91.462.674 0 1.326-.168 1.977-.462.652-.315 1.213-.735 1.753-1.302.696-.757 1.235-1.618 1.572-2.542.337-.946.494-2.017.494-3.193 0-1.198-.158-2.269-.516-3.214-.336-.94-.863-1.804-1.55-2.542zM61.54 9.852c0 1.597-.157 2.752-.493 3.488-.36.714-.9 1.07-1.663 1.07-.742 0-1.28-.357-1.64-1.07-.337-.736-.517-1.891-.517-3.488V5.126c0-1.597.18-2.752.517-3.466.337-.714.898-1.071 1.64-1.071.764 0 1.303.357 1.663 1.07.336.715.493 1.87.493 3.467v4.726zM94.23 9.07L92.122 0h-4.574v.638h1.077v13.38h-1.077v.615h2.848v-.616h-1.054V1.233l3.297 13.4h.74l3.654-13.04v12.424h-1.188v.616h5.202v-.616h-.942V.637h.942V0h-4.283L94.23 9.07zm8.36-8.431h1.08v13.38h-1.08v.615h5.4v-.616h-1.103V.637h1.102V0h-5.4v.638zm14.147.006h1.265V8.97L113.348 0h-4.201v.644h1.174v13.518h-1.175v.622h3.163v-.622h-1.287V2.017L117.8 15h.903V.644h1.242V0h-3.208v.644zM126.84 0h-.913l-.823 2.761-3.363 11.256h-1.024v.616h3.139v-.616h-1.403l1.114-3.716h3.027l1.003 3.716h-1.114v.616h5.033v-.616h-.802L126.839 0zm-1.736 9.621h-1.314l1.314-4.587.044-.128 1.269 4.715h-1.313zm12.215-3.765c-.245-.147-.576-.379-.998-.653-1.707-1.074-2.571-2.022-2.571-2.822 0-.506.199-.948.598-1.306.4-.358.887-.527 1.485-.527.799 0 1.486.295 2.018.885.554.59.975 1.453 1.22 2.59h.508V.17h-.509l-.489.759c-.404-.29-.843-.53-1.307-.716-.428-.145-.878-.216-1.33-.21-1.064 0-1.951.357-2.616 1.073-.687.738-1.041 1.665-1.041 2.823 0 1.011.243 1.874.71 2.591.464.716 1.373 1.537 2.724 2.401 1.176.78 1.93 1.39 2.24 1.812.31.421.465.905.465 1.454 0 .632-.2 1.179-.643 1.6-.42.4-.975.611-1.64.611-.909 0-1.661-.336-2.216-1.032-.577-.674-.954-1.664-1.109-2.97h-.532v4.381h.532l.598-.736c.422.31.884.565 1.374.758.444.147.91.232 1.353.232 1.13 0 2.062-.4 2.771-1.222.731-.822 1.086-1.875 1.086-3.181 0-1.032-.2-1.938-.644-2.675-.442-.759-1.107-1.454-2.038-2.065z"/>
</svg>
