<svg xmlns="http://www.w3.org/2000/svg" width="358" height="190" viewBox="0 0 358 190">
    <g fill="none" fill-rule="evenodd">
        <path fill="#E5E5E5" d="M5 0h348c2.762 0 5 2.239 5 5v180c0 2.762-2.238 5-5 5H5c-2.761 0-5-2.238-5-5V5c0-2.761 2.239-5 5-5z"/>
        <g>
            <path fill="#E24610" d="M63.021 67.5H6.979c-3.438 0-6.226-2.788-6.226-6.227 0-22.925 15.566-29.057 34.246-29.057 18.679 0 34.246 6.132 34.246 29.057.001 3.439-2.786 6.227-6.224 6.227z" transform="translate(34 61)"/>
            <path fill="#CE9E84" d="M49.47 34.66c0 7.992-6.479 14.471-14.47 14.471-7.992 0-14.473-6.479-14.473-14.471 0-.341.154-.979.154-.979l28.607-.006s.182.625.182.985z" transform="translate(34 61)"/>
            <path fill="#F1CDB0" d="M35 3.159c10.315 0 18.679 8.364 18.679 18.68 0 10.316-8.363 18.68-18.679 18.68-10.316 0-18.68-8.364-18.68-18.68 0-10.317 8.364-18.68 18.68-18.68z" transform="translate(34 61)"/>
            <path fill="#E5C025" d="M15.338 21.838c0-1.36.137-2.689.402-3.974.129-.641.293-1.271.482-1.889C18.72 7.948 26.207 2.12 35.055 2.12c.587 0 1.16.038 1.733.087.438.042.869.099 1.298.17l.192.028c1.01.179 1.998.433 2.953.753h.1c7.48 2.514 12.94 9.385 13.387 17.603-1.905-.457-3.893-1.236-5.836-2.355-3.301-1.905-5.813-4.415-7.262-6.947h-.652c-3.204 6.647-11.836 11.416-22 11.416-1.222 0-2.418-.088-3.591-.222-.011-.272-.039-.54-.039-.815z" transform="translate(34 61)"/>
            <path fill="#E5C025" d="M23.447 5.92S17.23-3.669 9.265 2.663c-7.966 6.331.002 11.436-6.533 15.318 0 0 5.077 5.104 12.341 0 7.263-5.106 8.374-12.061 8.374-12.061zM46.846 5.92s6.218-9.589 14.183-3.257c7.966 6.331-.002 11.436 6.533 15.318 0 0-5.078 5.104-12.342 0-7.265-5.106-8.374-12.061-8.374-12.061z" transform="translate(34 61)"/>
        </g>
        <g>
            <g>
                <path fill="#B0B0B0" d="M6.056.467h55.889c3.086 0 5.589 2.503 5.589 5.589v55.889c0 3.086-2.503 5.589-5.589 5.589H6.056c-3.086 0-5.589-2.503-5.589-5.589V6.056C.467 2.97 2.97.467 6.056.467z" transform="translate(247 61) translate(18)"/>
                <path fill="#8F8F8F" d="M6.056.467h55.889c3.086 0 5.589 2.503 5.589 5.589v9.315H.468V6.056C.467 2.97 2.97.467 6.056.467z" transform="translate(247 61) translate(18)"/>
                <path fill="#FFF" d="M5.125 20.028L62.875 20.028 62.875 62.875 5.125 62.875z" transform="translate(247 61) translate(18)"/>
                <path fill="#E64545" d="M8.85 4.193c2.059 0 3.727 1.668 3.727 3.726s-1.668 3.726-3.727 3.726c-2.057 0-3.725-1.668-3.725-3.726S6.793 4.193 8.85 4.193z" transform="translate(247 61) translate(18)"/>
                <path fill="#FFD02C" d="M19.096 4.193c2.059 0 3.727 1.668 3.727 3.726s-1.668 3.726-3.727 3.726c-2.057 0-3.725-1.668-3.725-3.726s1.668-3.726 3.725-3.726z" transform="translate(247 61) translate(18)"/>
                <path fill="#AEE42D" d="M29.343 4.193c2.058 0 3.726 1.668 3.726 3.726s-1.668 3.726-3.726 3.726-3.726-1.668-3.726-3.726 1.668-3.726 3.726-3.726z" transform="translate(247 61) translate(18)"/>
                <path fill="#095D97" d="M39.26 29.82H59.512V46.230000000000004H39.26z" transform="translate(247 61) translate(18)"/>
                <path fill="#FFF" fill-rule="nonzero" d="M49.387 37.443c.531 0 .979.363 1.104.854.16.616.137 1.292.836 1.642.619.212.854.479.854 1.195 0 .571-.484 1.178-1.111 1.254-.697.106-1.242-.033-1.682-.286-.441.253-.986.392-1.684.286-.625-.076-1.109-.685-1.109-1.254 0-.7.25-.997.867-1.2.76-.392.658-1.078.828-1.667.136-.475.575-.824 1.097-.824zm3.482-.425c-.188-.165-.957.479-1.199.798-.146.169-.238.403-.238.662 0 .519.367.939.822.939.344 0 .639-.242.76-.586.238-.618.25-1.468-.145-1.813zm-6.967 0c-.395.346-.383 1.196-.145 1.813.121.344.416.586.762.586.453 0 .82-.42.82-.939 0-.258-.092-.492-.238-.662-.242-.319-1.011-.963-1.199-.798zm4.496-3.388c1.914.327 1.779 3.578.246 3.315-.441-.075-.77-.482-.818-.966-.053-.493-.166-2.475.572-2.349zm-2.025 0c.738-.126.625 1.856.574 2.349-.051.484-.379.891-.82.966-1.533.263-1.668-2.987.246-3.315z" transform="translate(247 61) translate(18)"/>
                <path fill="#D8D8D8" d="M7.699 22.52H59.512V26.596H7.699z" transform="translate(247 61) translate(18)"/>
                <g fill="#D8D8D8">
                    <path d="M.699.059H28.842000000000002V1.896H.699zM.699 4.004H28.842000000000002V5.840999999999999H.699zM.699 7.949H28.842000000000002V9.786H.699zM.699 11.895H28.842000000000002V13.732H.699zM.699 15.839H28.842000000000002V17.676000000000002H.699zM.699 19.785H28.842000000000002V21.622H.699zM.699 23.729H28.842000000000002V25.566H.699zM.699 27.675H28.842000000000002V29.512H.699z" transform="translate(247 61) translate(18) translate(7 30)"/>
                </g>
                <g fill="#D8D8D8">
                    <path d="M.195.785H20.511V2.622H.195zM.195 4.729H20.511V6.566H.195zM.195 8.675H20.511V10.512H.195z" transform="translate(247 61) translate(18) translate(39 49)"/>
                </g>
            </g>
            <g>
                <path fill="#E24610" d="M38.13 40.5H4.49c-2.063 0-3.736-1.674-3.736-3.738 0-13.761 9.344-17.442 20.557-17.442 11.212 0 20.557 3.681 20.557 17.442-.001 2.064-1.674 3.738-3.738 3.738z" transform="translate(247 61) translate(0 37)"/>
                <path fill="#CE9E84" d="M29.996 20.788c0 4.797-3.889 8.687-8.686 8.687-4.797 0-8.688-3.889-8.688-8.687 0-.205.092-.587.092-.587l17.172-.004c.001-.001.11.374.11.591z" transform="translate(247 61) translate(0 37)"/>
                <path fill="#F1CDB0" d="M21.311 1.878c6.191 0 11.212 5.021 11.212 11.212 0 6.193-5.021 11.213-11.212 11.213-6.192 0-11.213-5.021-11.213-11.213 0-6.191 5.02-11.212 11.213-11.212z" transform="translate(247 61) translate(0 37)"/>
                <path fill="#E5C025" d="M9.508 13.091c0-.816.083-1.614.242-2.385.078-.385.176-.763.289-1.134 1.5-4.818 5.994-8.317 11.305-8.317.354 0 .697.022 1.041.053.263.025.521.059.779.102l.115.017c.605.107 1.199.26 1.772.452h.06c4.49 1.509 7.768 5.633 8.035 10.566-1.143-.274-2.336-.742-3.502-1.414-1.982-1.143-3.49-2.65-4.359-4.17h-.392c-1.923 3.99-7.104 6.853-13.206 6.853-.734 0-1.451-.053-2.156-.133-.006-.164-.023-.325-.023-.49z" transform="translate(247 61) translate(0 37)"/>
                <path fill="#E5C025" d="M14.375 3.536S10.644-2.22 5.863 1.581c-4.782 3.8 0 6.865-3.922 9.195 0 0 3.047 3.063 7.408 0 4.36-3.066 5.026-7.24 5.026-7.24zM28.421 3.536s3.732-5.756 8.514-1.955c4.781 3.8-.001 6.865 3.922 9.195 0 0-3.049 3.063-7.409 0-4.361-3.066-5.027-7.24-5.027-7.24z" transform="translate(247 61) translate(0 37)"/>
            </g>
        </g>
        <g>
            <path fill="#B0B0B0" d="M6.056.467h55.889c3.086 0 5.589 2.503 5.589 5.589v55.889c0 3.086-2.503 5.589-5.589 5.589H6.056c-3.086 0-5.589-2.503-5.589-5.589V6.056C.467 2.97 2.97.467 6.056.467z" transform="translate(145 61)"/>
            <path fill="#8F8F8F" d="M6.056.467h55.889c3.086 0 5.589 2.503 5.589 5.589v9.315H.468V6.056C.467 2.97 2.97.467 6.056.467z" transform="translate(145 61)"/>
            <path fill="#FFF" d="M5.125 20.028L62.875 20.028 62.875 62.875 5.125 62.875z" transform="translate(145 61)"/>
            <path fill="#E64545" d="M8.85 4.193c2.059 0 3.727 1.668 3.727 3.726s-1.668 3.726-3.727 3.726c-2.057 0-3.725-1.668-3.725-3.726S6.793 4.193 8.85 4.193z" transform="translate(145 61)"/>
            <path fill="#FFD02C" d="M19.096 4.193c2.059 0 3.727 1.668 3.727 3.726s-1.668 3.726-3.727 3.726c-2.057 0-3.725-1.668-3.725-3.726s1.668-3.726 3.725-3.726z" transform="translate(145 61)"/>
            <path fill="#AEE42D" d="M29.343 4.193c2.058 0 3.726 1.668 3.726 3.726s-1.668 3.726-3.726 3.726-3.726-1.668-3.726-3.726 1.668-3.726 3.726-3.726z" transform="translate(145 61)"/>
            <path fill="#095D97" d="M18.546 22.52H25.616999999999997V25.166999999999998H18.546zM28.546 22.52H39.195V25.166999999999998H28.546zM42.546 22.52H49.354V25.166999999999998H42.546zM52.546 22.52H59.512V25.166999999999998H52.546z" transform="translate(145 61)"/>
            <path fill="#095D97" fill-rule="nonzero" d="M11.496 27.235c.531 0 .979.363 1.104.854.159.616.137 1.292.835 1.642.619.212.854.479.854 1.195 0 .571-.484 1.178-1.11 1.254-.698.106-1.242-.033-1.683-.286-.441.253-.985.392-1.684.286-.625-.076-1.109-.685-1.109-1.254 0-.7.25-.997.867-1.2.761-.392.659-1.078.828-1.667.138-.476.576-.824 1.098-.824zm3.483-.426c-.188-.165-.958.479-1.199.798-.147.169-.238.403-.238.662 0 .519.367.939.821.939.345 0 .639-.242.761-.586.237-.617.25-1.467-.145-1.813zm-6.968 0c-.395.346-.382 1.196-.145 1.813.122.344.417.586.762.586.453 0 .82-.42.82-.939 0-.258-.091-.492-.238-.662-.242-.318-1.01-.963-1.199-.798zm4.496-3.387c1.915.327 1.78 3.578.247 3.315-.441-.075-.77-.482-.819-.966-.052-.493-.165-2.476.572-2.349zm-2.024 0c.738-.126.624 1.856.573 2.349-.051.484-.378.891-.82.966-1.533.263-1.668-2.988.247-3.315z" transform="translate(145 61)"/>
            <g fill="#D8D8D8">
                <path d="M11.546.059H28.842V1.896H11.546zM.699 4.004H28.842000000000002V5.840999999999999H.699zM.699 7.949H28.842000000000002V9.786H.699zM.699 11.895H28.842000000000002V13.732H.699zM.699 15.839H28.842000000000002V17.676000000000002H.699zM.699 19.785H28.842000000000002V21.622H.699zM.699 23.729H28.842000000000002V25.566H.699zM.699 27.675H28.842000000000002V29.512H.699z" transform="translate(145 61) translate(7 30)"/>
            </g>
            <g fill="#D8D8D8">
                <path d="M.195.785H20.511V2.622H.195zM.195 4.729H20.511V6.566H.195zM.195 8.675H20.511V10.512H.195z" transform="translate(145 61) translate(39 29)"/>
            </g>
            <g fill="#D8D8D8">
                <path d="M.195.785H20.511V2.622H.195zM.195 4.729H20.511V6.566H.195zM.195 8.675H20.511V10.512H.195z" transform="translate(145 61) translate(39 41)"/>
            </g>
            <g fill="#D8D8D8">
                <path d="M.195.785H20.511V2.622H.195zM.195 4.729H20.511V6.566H.195z" transform="translate(145 61) translate(39 53)"/>
            </g>
        </g>
        <g fill="#444" transform="translate(100 95)">
            <circle cx="5.059" cy="5" r="4.574"/>
            <circle cx="13.97" cy="5" r="2.832"/>
            <circle cx="20.926" cy="5" r="2.832"/>
            <circle cx="27.882" cy="5" r="2.832"/>
            <circle cx="34.838" cy="5" r="2.832"/>
            <circle cx="36.44" cy="5" r="4.573"/>
        </g>
        <g fill="#444" transform="translate(218 95)">
            <circle cx="5.059" cy="5" r="4.574"/>
            <circle cx="13.882" cy="5" r="2.832"/>
            <circle cx="20.838" cy="5" r="2.832"/>
            <circle cx="27.793" cy="5" r="2.833"/>
            <circle cx="34.75" cy="5" r="2.832"/>
            <circle cx="36.44" cy="5" r="4.573"/>
        </g>
    </g>
</svg>
