<svg xmlns="http://www.w3.org/2000/svg" width="358" height="190" viewBox="0 0 358 190">
    <defs>
        <linearGradient id="prefix__a" x1="-.001%" x2="100.001%" y1="50%" y2="50%">
            <stop offset="0%" stop-color="#FFF" stop-opacity="0"/>
            <stop offset="100%" stop-color="#FFF"/>
        </linearGradient>
        <linearGradient id="prefix__b" x1="0%" x2="99.999%" y1="50%" y2="50%">
            <stop offset="0%" stop-color="#FFF" stop-opacity="0"/>
            <stop offset="100%" stop-color="#FFF"/>
        </linearGradient>
        <linearGradient id="prefix__c" x1="-.001%" x2="100%" y1="50%" y2="50%">
            <stop offset="0%" stop-color="#FFF" stop-opacity="0"/>
            <stop offset="100%" stop-color="#FFF"/>
        </linearGradient>
    </defs>
    <g fill="none" fill-rule="evenodd">
        <path fill="#E5E5E5" d="M5 0h348c2.762 0 5 2.239 5 5v180c0 2.762-2.238 5-5 5H5c-2.761 0-5-2.238-5-5V5c0-2.761 2.239-5 5-5z"/>
        <path fill="#000" fill-rule="nonzero" d="M148.835 138.92c23.953 0 43.371 1.093 43.371 2.44 0 1.348-19.417 2.44-43.371 2.44s-43.371-1.092-43.371-2.44c.001-1.347 19.418-2.44 43.371-2.44z" opacity=".1"/>
        <path fill="#474E5D" d="M114.065 34h69.54c3.368 0 6.1 2.731 6.1 6.1v95.16c0 3.369-2.731 6.1-6.1 6.1h-69.54c-3.369 0-6.1-2.731-6.1-6.1V40.1c0-3.369 2.732-6.1 6.1-6.1z"/>
        <path fill="#FFF" d="M115.896 44.98L181.776 44.98 181.776 130.38 115.896 130.38z"/>
        <g transform="translate(115 47)">
            <path fill="#C6C6C6" fill-rule="nonzero" d="M3.308 19.084H64.247V47H3.308z"/>
            <path fill="#FBC818" d="M1.037 71.146H66.9V83.345H1.037z"/>
            <path fill="#C6C6C6" fill-rule="nonzero" d="M3.308 49.084H17.807000000000002V57.616H3.308zM3.308 60.591H17.807000000000002V68.34100000000001H3.308z"/>
            <path stroke="#C2C3C4" stroke-width=".25" d="M3.308 59.076h28.816"/>
            <path fill="#C2C3C4" fill-rule="nonzero" d="M20.473 49.084H32.19V50.150000000000006H20.473zM20.473 50.881H32.19V51.947H20.473zM20.473 52.677H32.19V53.744H20.473zM20.473 54.473H27.655V55.539H20.473zM20.473 61.293H32.19V62.359H20.473zM20.473 63.089H32.19V64.155H20.473zM20.473 64.885H32.19V65.95100000000001H20.473zM20.473 66.682H27.655V67.748H20.473z"/>
            <path fill="#C6C6C6" fill-rule="nonzero" d="M35.154 49.084H49.654V57.616H35.154zM35.154 60.591H49.654V68.34100000000001H35.154z"/>
            <path stroke="#C2C3C4" stroke-width=".25" d="M35.154 59.076H63.97"/>
            <path fill="#C2C3C4" fill-rule="nonzero" d="M52.319 49.084H64.037V50.150000000000006H52.319zM52.319 50.881H64.037V51.947H52.319zM52.319 52.677H64.037V53.744H52.319zM52.319 54.473H59.502V55.539H52.319zM52.319 61.293H64.037V62.359H52.319zM52.319 63.089H64.037V64.155H52.319zM52.319 64.885H64.037V65.95100000000001H52.319zM52.319 66.682H59.502V67.748H52.319z"/>
            <path fill="#C2C3C4" d="M3.308 0.406H22.809V6.992H3.308z"/>
            <path fill="#C6C6C6" d="M0.896 12.53H66.759V16.122H0.896z"/>
            <path fill="#9E9E9E" d="M0.896 8.938H66.759V12.530000000000001H0.896z"/>
            <circle cx="61.508" cy="3.898" r="2.739" fill="#C2C3C4" fill-rule="nonzero"/>
        </g>
        <path fill="#FFF" d="M148.835 133.326c1.396 0 2.528 1.132 2.528 2.529 0 1.396-1.132 2.528-2.528 2.528-1.396 0-2.528-1.132-2.528-2.528 0-1.397 1.132-2.529 2.528-2.529z"/>
        <path fill="#B6B9BA" d="M144.565 39.49c.337 0 .61.273.61.61 0 .337-.273.61-.61.61-.337 0-.61-.273-.61-.61 0-.337.273-.61.61-.61zM147.615 39.49h6.1c.337 0 .61.273.61.61 0 .337-.272.61-.61.61h-6.1c-.337 0-.61-.273-.61-.61 0-.337.273-.61.61-.61z"/>
        <path fill="#000" fill-rule="nonzero" d="M223.865 138.92c15.809 0 28.625 1.093 28.625 2.44 0 1.348-12.816 2.44-28.625 2.44s-28.625-1.092-28.625-2.44c0-1.347 12.817-2.44 28.625-2.44z" opacity=".1"/>
        <path fill="#474E5D" d="M201.905 57.18h44.53c3.368 0 6.1 2.731 6.1 6.1v71.98c0 3.369-2.731 6.1-6.1 6.1h-44.53c-3.368 0-6.1-2.731-6.1-6.1V63.28c.001-3.369 2.732-6.1 6.1-6.1z"/>
        <path fill="#FFF" d="M249.485 132.82L198.855 132.82 198.245 132.82 198.245 65.11 198.855 65.11 249.485 65.11 250.095 65.11 250.095 132.82z"/>
        <g transform="translate(198 65)">
            <path fill="#C6C6C6" fill-rule="nonzero" d="M2.105 28.785H50.373V50.894999999999996H2.105zM2.105 52.546H13.589V59.304H2.105zM2.105 61.66H13.589V67.798H2.105z"/>
            <path stroke="#C2C3C4" stroke-width=".25" d="M2.105 60.46H24.93"/>
            <path fill="#C2C3C4" fill-rule="nonzero" d="M15.701 52.546H24.982V53.546H15.701zM15.701 53.969H24.982V54.969H15.701zM15.701 55.391H24.982V56.391H15.701zM15.701 56.814H21.39V57.814H15.701zM15.701 62.216H24.982V63.216H15.701zM15.701 63.639H24.982V64.63900000000001H15.701zM15.701 65.061H24.982V66.061H15.701zM15.701 66.483H21.39V67.483H15.701z"/>
            <path fill="#C6C6C6" fill-rule="nonzero" d="M27.33 52.546H38.813V59.304H27.33zM27.33 61.66H38.813V67.798H27.33z"/>
            <path stroke="#C2C3C4" stroke-width=".25" d="M27.33 60.46h22.822"/>
            <path fill="#C2C3C4" fill-rule="nonzero" d="M40.926 52.546H50.206V53.546H40.926zM40.926 53.969H50.206V54.969H40.926zM40.926 55.391H50.206V56.391H40.926zM40.926 56.814H46.614000000000004V57.814H40.926zM40.926 62.216H50.206V63.216H40.926zM40.926 63.639H50.206V64.63900000000001H40.926zM40.926 65.061H50.206V66.061H40.926zM40.926 66.483H46.614000000000004V67.483H40.926z"/>
            <path fill="#C2C3C4" d="M2.105 2.11H17.551V7.3260000000000005H2.105z"/>
            <path fill="#C6C6C6" d="M0.195 11.712H52.095V14.557H0.195z"/>
            <path fill="#9E9E9E" d="M0.195 8.867H52.095V11.712000000000002H0.195z"/>
            <circle cx="48.203" cy="4.875" r="2.17" fill="#C2C3C4" fill-rule="nonzero"/>
            <path fill="#FBC818" d="M0.245 0.11H52.096V67.798H0.245z"/>
        </g>
        <path fill="#FFF" d="M223.256 134.546c1.396 0 2.527 1.132 2.527 2.529 0 1.396-1.132 2.528-2.527 2.528-1.396 0-2.528-1.132-2.528-2.528 0-1.397 1.131-2.529 2.528-2.529z"/>
        <path fill="#B6B9BA" d="M217.766 60.84c.337 0 .609.273.609.61 0 .337-.272.61-.609.61-.338 0-.61-.273-.61-.61 0-.337.272-.61.61-.61zM220.815 60.84h6.1c.338 0 .61.273.61.61 0 .337-.272.61-.61.61h-6.1c-.337 0-.61-.273-.61-.61 0-.337.274-.61.61-.61z"/>
        <path fill="#000" fill-rule="nonzero" d="M189.4 152.34c11.623 0 21.045.819 21.045 1.83 0 1.011-9.422 1.83-21.045 1.83-11.623 0-21.045-.819-21.045-1.83 0-1.011 9.423-1.83 21.045-1.83z" opacity=".1"/>
        <path fill="url(#prefix__a)" d="M115.896 110.86L115.896 130.38 181.775 130.38 181.775 44.98z" opacity=".3"/>
        <path fill="#474E5D" d="M178.115 78.53h23.18c3.369 0 6.101 2.731 6.101 6.1v63.44c0 3.368-2.731 6.1-6.101 6.1h-23.18c-3.369 0-6.1-2.731-6.1-6.1V84.63c.001-3.369 2.732-6.1 6.1-6.1z"/>
        <path fill="#FFF" d="M174.456 143.19L174.456 89.51 204.956 89.51 204.956 143.19z"/>
        <g transform="translate(174 91)">
            <path fill="#C6C6C6" fill-rule="nonzero" d="M2.366 7.124H29.063V19.352999999999998H2.366z"/>
            <path fill="#FBC818" d="M0.473 46.846H30.955V52.19H0.473z"/>
            <path fill="#C6C6C6" fill-rule="nonzero" d="M2.366 20.885H13.85V27.643H2.366zM2.366 29.999H13.85V36.137H2.366z"/>
            <path stroke="#C2C3C4" stroke-width=".25" d="M2.366 28.799h26.697"/>
            <path fill="#C2C3C4" fill-rule="nonzero" d="M15.961 20.885H29.115000000000002V21.885H15.961zM15.961 22.308H29.115000000000002V23.308H15.961zM15.961 23.73H29.115000000000002V24.73H15.961zM15.961 25.152H24.024V26.152H15.961zM15.961 30.555H29.115000000000002V31.555H15.961zM15.961 31.978H29.115000000000002V32.978H15.961zM15.961 33.4H29.115000000000002V34.4H15.961zM15.961 34.822H24.024V35.822H15.961z"/>
            <path fill="#C6C6C6" fill-rule="nonzero" d="M2.366 38.354H13.85V44.492H2.366z"/>
            <path stroke="#C2C3C4" stroke-width=".25" d="M2.366 37.153h26.697"/>
            <path fill="#C2C3C4" fill-rule="nonzero" d="M15.961 38.909H29.115000000000002V39.909H15.961zM15.961 40.332H29.115000000000002V41.332H15.961zM15.961 41.755H29.115000000000002V42.755H15.961zM15.961 43.177H24.024V44.177H15.961z"/>
            <path fill="#C2C3C4" d="M2.366 0.449H17.813V5.665H2.366z"/>
            <circle cx="26.893" cy="3.214" r="2.17" fill="#C2C3C4" fill-rule="nonzero"/>
        </g>
        <path fill="#FFF" d="M189.705 146.137c1.396 0 2.528 1.132 2.528 2.528 0 1.396-1.132 2.528-2.528 2.528-1.396 0-2.528-1.132-2.528-2.528 0-1.396 1.132-2.528 2.528-2.528z"/>
        <path fill="#B6B9BA" d="M184.825 84.02c.337 0 .61.273.61.61 0 .337-.273.61-.61.61-.337 0-.609-.273-.609-.61 0-.337.272-.61.609-.61zM187.875 84.02h6.101c.337 0 .609.273.609.61 0 .337-.272.61-.609.61h-6.101c-.337 0-.609-.273-.609-.61 0-.337.272-.61.609-.61z"/>
        <path fill="url(#prefix__b)" d="M198.245 132.82L198.855 132.82 249.485 132.82 250.096 132.82 250.096 65.72 198.245 117.57z" opacity=".3"/>
        <path fill="url(#prefix__c)" d="M174.456 143.19L204.955 143.19 204.955 90.73 174.456 120.62z" opacity=".3"/>
    </g>
</svg>
