<svg xmlns="http://www.w3.org/2000/svg" width="358" height="190" viewBox="0 0 358 190">
    <g fill="none" fill-rule="evenodd">
        <path fill="#E5E5E5" d="M5 0h348c2.762 0 5 2.239 5 5v180c0 2.762-2.238 5-5 5H5c-2.761 0-5-2.238-5-5V5c0-2.761 2.239-5 5-5z"/>
        <g>
            <path fill="#B0B0B0" d="M7.583.5h70.834C82.328.5 85.5 3.672 85.5 7.583v70.834c0 3.911-3.172 7.083-7.083 7.083H7.583C3.672 85.5.5 82.328.5 78.417V7.583C.5 3.672 3.672.5 7.583.5z" transform="translate(47 52)"/>
            <path fill="#8F8F8F" d="M7.583.5h70.834C82.328.5 85.5 3.672 85.5 7.583v11.806H.5V7.583C.5 3.672 3.672.5 7.583.5z" transform="translate(47 52)"/>
            <path fill="#FFF" d="M6.403 25.292L79.597 25.292 79.597 79.597 6.403 79.597z" transform="translate(47 52)"/>
            <path fill="#E64545" d="M11.125 5.222c2.608 0 4.722 2.115 4.722 4.722 0 2.608-2.114 4.723-4.722 4.723-2.608 0-4.722-2.115-4.722-4.723 0-2.607 2.114-4.722 4.722-4.722z" transform="translate(47 52)"/>
            <path fill="#FFD02C" d="M24.111 5.222c2.608 0 4.722 2.115 4.722 4.722 0 2.608-2.114 4.723-4.722 4.723-2.608 0-4.722-2.115-4.722-4.723 0-2.607 2.114-4.722 4.722-4.722z" transform="translate(47 52)"/>
            <path fill="#AEE42D" d="M37.097 5.222c2.608 0 4.722 2.115 4.722 4.722 0 2.608-2.114 4.723-4.722 4.723-2.607 0-4.722-2.115-4.722-4.723 0-2.607 2.115-4.722 4.722-4.722z" transform="translate(47 52)"/>
        </g>
        <g opacity=".5">
            <path fill="#44B2B6" d="M29.387 30.55H3.586c-1.583 0-2.867-1.284-2.867-2.867 0-10.555 7.168-13.377 15.768-13.377 8.6 0 15.767 2.823 15.767 13.377-.001 1.584-1.284 2.867-2.867 2.867z" transform="translate(191 80)"/>
            <path fill="#FFF" d="M9.797 15.261L16.964 18.127 14.098 22.428z" transform="translate(191 80)"/>
            <path fill="#FFF" d="M23.653 15.261L16.486 18.127 19.352 22.428z" transform="translate(191 80)"/>
            <path fill="#D8B39A" d="M16.486.928c4.749 0 8.6 3.85 8.6 8.6s-3.851 8.6-8.6 8.6c-4.75 0-8.6-3.85-8.6-8.6s3.85-8.6 8.6-8.6z" transform="translate(191 80)"/>
            <path fill="#AB6125" d="M25.546 9.903c-.54.061-1.091.103-1.653.103-4.68 0-8.653-2.195-10.129-5.256h-.302c-.666 1.166-1.822 2.321-3.342 3.198-.895.516-1.81.874-2.687 1.084.205-3.784 2.719-6.947 6.162-8.104h.047c.439-.147.895-.264 1.359-.347l.089-.013c.196-.032.396-.059.597-.078.265-.023.528-.04.799-.04 4.073 0 7.521 2.683 8.67 6.378.088.284.163.575.223.87.122.591.185 1.203.185 1.829-.001.127-.013.25-.018.376z" transform="translate(191 80)"/>
        </g>
        <circle cx="256.479" cy="97" r="31.116" fill="#FFF"/>
        <g>
            <path fill="#B5458F" d="M38.143 40.5H3.858c-2.104 0-3.81-1.706-3.81-3.81C.048 22.664 9.572 18.913 21 18.913c11.428 0 20.952 3.751 20.952 17.777 0 2.104-1.705 3.81-3.809 3.81z" transform="translate(235 75)"/>
            <path fill="#000" fill-rule="nonzero" d="M8.97 11.636s2.158 8.663-4.289 15.916H15.29L21 24.328l5.472 3.224h9.814s-3.231-5.189-3.235-8.638l-.012-7.277H8.97v-.001z" transform="translate(235 75)"/>
            <path fill="#FFF" d="M12.11 20.183l9.524 3.808s-3.962 4.104-7.032 4.104c-3.071-.001-2.492-7.912-2.492-7.912z" transform="translate(235 75)"/>
            <path fill="#FFF" d="M27.159 28.094c-3.07 0-7.032-4.104-7.032-4.104l9.523-3.808c0 .001.579 7.912-2.491 7.912z" transform="translate(235 75)"/>
            <path fill="#BA9378" d="M21 1.135c6.313 0 11.428 5.116 11.428 11.428 0 6.312-5.115 11.428-11.428 11.428-6.313 0-11.428-5.116-11.428-11.428C9.572 6.251 14.688 1.135 21 1.135z" transform="translate(235 75)"/>
            <path fill="#000" fill-rule="nonzero" d="M8.969 12.563c0-.833.083-1.646.245-2.431.079-.393.18-.778.296-1.156C11.036 4.065 15.618.5 21.031.5c.359 0 .71.023 1.061.053.269.026.531.061.794.104l.118.017c.617.11 1.223.265 1.807.461h.061c4.577 1.537 7.918 5.741 8.19 10.769-1.166-.279-2.382-.755-3.57-1.44-2.02-1.166-3.556-2.701-4.442-4.25h-.399c-1.961 4.067-7.241 6.984-13.46 6.984-.748 0-1.479-.055-2.197-.136-.009-.166-.025-.33-.025-.499z" transform="translate(235 75)"/>
        </g>
        <g opacity=".5" transform="translate(288 79)">
            <path fill="#000" fill-rule="nonzero" d="M29.414 31.55H3.613c-1.583 0-2.866-1.284-2.866-2.867 0-10.555 7.167-13.377 15.767-13.377 8.601 0 15.768 2.823 15.768 13.377-.001 1.584-1.285 2.867-2.868 2.867z"/>
            <path fill="#FFF" d="M10.033 15.5L16.949 31.417 22.967 15.5z"/>
            <path fill="#727272" d="M9.88 16L7.914 18.375 10.313 20.25 9.113 21.25 16.949 31.417 10.188 15.844zM23.238 15.844L25.316 18.123 23.01 20.109 24.254 21.051 16.911 31.58 22.924 15.702z"/>
            <path fill="#C94949" d="M14.936 18.992L17.952 18.992 18.687 20.217 17.772 22.008 15.229 22.008 14.364 20.217z"/>
            <path fill="#F1CDB0" d="M16.514 1.928c4.75 0 8.601 3.85 8.601 8.6s-3.851 8.6-8.601 8.6c-4.749 0-8.6-3.85-8.6-8.6s3.851-8.6 8.6-8.6z"/>
            <path fill="#C94949" d="M15.229 22.008L14.813 26.5 16.949 31.417 18.8 26.563 17.772 22.008z"/>
            <circle cx="12.199" cy="3.615" r="2.166" fill="#C6563C" fill-rule="nonzero"/>
            <circle cx="15.324" cy="2.74" r="2.166" fill="#C6563C" fill-rule="nonzero"/>
            <circle cx="18.666" cy="2.74" r="2.166" fill="#C6563C" fill-rule="nonzero"/>
            <circle cx="21.114" cy="3.615" r="2.166" fill="#C6563C" fill-rule="nonzero"/>
            <circle cx="23.279" cy="5.781" r="2.166" fill="#C6563C" fill-rule="nonzero"/>
            <circle cx="10.034" cy="5.781" r="2.166" fill="#C6563C" fill-rule="nonzero"/>
            <circle cx="8.702" cy="7.946" r="1.331" fill="#C6563C" fill-rule="nonzero"/>
            <circle cx="24.703" cy="7.946" r="1.175" fill="#C6563C" fill-rule="nonzero"/>
            <circle cx="20.034" cy="5.781" r="2.166" fill="#C6563C" fill-rule="nonzero"/>
            <circle cx="13.034" cy="5.781" r="2.166" fill="#C6563C" fill-rule="nonzero"/>
            <circle cx="16.034" cy="5.781" r="2.166" fill="#C6563C" fill-rule="nonzero"/>
            <circle cx="18.666" cy="6.228" r="2.166" fill="#C6563C" fill-rule="nonzero"/>
        </g>
        <g opacity=".5">
            <path fill="#E24610" d="M29.644 31.101H3.843c-1.583 0-2.866-1.284-2.866-2.867 0-10.555 7.166-13.378 15.767-13.378 8.6 0 15.767 2.823 15.767 13.378-.001 1.583-1.284 2.867-2.867 2.867z" transform="translate(215 37)"/>
            <path fill="#CE9E84" d="M23.405 15.981c0 3.68-2.983 6.663-6.662 6.663-3.68 0-6.663-2.983-6.663-6.663 0-.157.07-.45.07-.45l13.171-.003s.084.287.084.453z" transform="translate(215 37)"/>
            <path fill="#F1CDB0" d="M16.743 1.478c4.749 0 8.6 3.851 8.6 8.6s-3.851 8.6-8.6 8.6c-4.75 0-8.601-3.851-8.601-8.6s3.851-8.6 8.601-8.6z" transform="translate(215 37)"/>
            <path fill="#E5C025" d="M7.691 10.078c0-.626.063-1.238.185-1.83.06-.295.135-.585.223-.87C9.248 3.682 12.696.999 16.769.999c.271 0 .534.017.799.04.201.02.399.046.597.079l.089.013c.465.083.92.199 1.359.347h.046c3.444 1.157 5.958 4.321 6.163 8.104-.877-.21-1.792-.569-2.687-1.084-1.52-.877-2.676-2.033-3.343-3.198h-.301c-1.476 3.061-5.449 5.256-10.129 5.256-.563 0-1.113-.041-1.653-.102-.005-.126-.018-.249-.018-.376z" transform="translate(215 37)"/>
        </g>
        <g opacity=".5">
            <path fill="#454FB5" d="M29.157 30.101H3.356c-1.583 0-2.866-1.284-2.866-2.867 0-10.555 7.167-13.378 15.767-13.378 8.601 0 15.767 2.823 15.767 13.378-.001 1.583-1.284 2.867-2.867 2.867z" transform="translate(264 38)"/>
            <path fill="#FFF" d="M9.567 14.5L16.484 23.417 22.502 14.5z" transform="translate(264 38)"/>
            <path fill="#EAD096" d="M16.257.478c4.75 0 8.601 3.851 8.601 8.6s-3.851 8.6-8.601 8.6c-4.749 0-8.6-3.851-8.6-8.6s3.851-8.6 8.6-8.6z" transform="translate(264 38)"/>
            <path fill="#593215" d="M25.149 7.249c-.06-.295-.135-.585-.223-.87C23.778 2.683 20.329 0 16.256 0c-.27 0-.534.017-.798.04-.202.02-.4.046-.598.079l-.089.013c-.465.083-.92.199-1.359.347h-.046C9.922 1.636 7.408 5.217 7.203 9.001c.295-.071 2.448-.08 5.171-.065V5.75h1.25v3.187c5.35.031 11.709.146 11.709.063.001-.626-.062-1.16-.184-1.751z" transform="translate(264 38)"/>
        </g>
        <g opacity=".5">
            <path fill="#E55353" d="M29.644 31H3.843C2.26 31 .977 29.716.977 28.133c0-10.555 7.166-13.377 15.767-13.377 8.6 0 15.767 2.822 15.767 13.377C32.51 29.716 31.227 31 29.644 31z" transform="translate(215 122)"/>
            <path fill="#FFF" d="M10.563 15.951s.755 4.966 6.18 4.966 6.07-4.848 6.07-4.848l-12.25-.118z" transform="translate(215 122)"/>
            <path fill="#F1CDB0" d="M16.743 1.376c4.749 0 8.6 3.852 8.6 8.601 0 4.749-3.851 8.599-8.6 8.599-4.75 0-8.601-3.85-8.601-8.599 0-4.749 3.851-8.601 8.601-8.601z" transform="translate(215 122)"/>
            <path fill="#593215" d="M25.636 8.148c-.06-.295-.135-.586-.223-.871-1.149-3.695-4.597-6.378-8.67-6.378-.271 0-.534.018-.799.04-.201.02-.399.046-.597.078-.029.003-.059.008-.089.013-.465.083-.92.199-1.359.346h-.046C10.409 2.534 7.895 5.697 7.69 9.481v16.894h2.872V7.937h12.25v18.438h3.008V9.481s-.062-.742-.184-1.333z" transform="translate(215 122)"/>
        </g>
        <g opacity=".5">
            <path fill="#7045B5" d="M29.157 34H3.356C1.773 34 .49 32.716.49 31.133c0-10.555 7.167-13.377 15.767-13.377 8.601 0 15.767 2.822 15.767 13.377C32.023 32.716 30.74 34 29.157 34z" transform="translate(264 119)"/>
            <path fill="#FFF" d="M9.567 18.71L16.734 21.576 13.868 25.877z" transform="translate(264 119)"/>
            <path fill="#FFF" d="M23.424 18.71L16.257 21.576 19.123 25.877z" transform="translate(264 119)"/>
            <path fill="#F1CDB0" d="M16.257 4.376c4.75 0 8.601 3.852 8.601 8.601 0 4.749-3.851 8.599-8.601 8.599-4.749 0-8.6-3.85-8.6-8.599 0-4.749 3.851-8.601 8.6-8.601z" transform="translate(264 119)"/>
            <path fill="#D3B226" d="M9.567 7.5S13.459 3.899 13.15.583h6.267s.167 4.5 3.75 6.917h-13.6z" transform="translate(264 119)"/>
        </g>
        <path fill="#E5C025" d="M226.424 39.75s-2.862-4.415-6.529-1.5.001 5.265-3.008 7.052c0 0 2.338 2.35 5.683 0 3.343-2.351 3.854-5.552 3.854-5.552zM237.197 39.75s2.862-4.415 6.529-1.5-.001 5.265 3.008 7.052c0 0-2.338 2.35-5.683 0-3.343-2.351-3.854-5.552-3.854-5.552z" opacity=".5"/>
        <path fill="#444" d="M256.479 59.278c-20.834 0-37.723 16.889-37.723 37.722 0 20.833 16.889 37.722 37.723 37.722 20.833 0 37.722-16.889 37.722-37.722 0-20.833-16.889-37.722-37.722-37.722zm0 68.838c-17.186 0-31.116-13.931-31.116-31.116 0-17.185 13.931-31.116 31.116-31.116 17.185 0 31.115 13.931 31.115 31.116 0 17.185-13.931 31.116-31.115 31.116z"/>
        <path fill="#FBC818" d="M96.667 89.702H122.334V110.5H96.667z"/>
        <g fill="#444" transform="translate(119 95)">
            <circle cx="4.97" cy="5" r="4.574"/>
            <circle cx="13.881" cy="5" r="2.832"/>
            <circle cx="20.837" cy="5" r="2.832"/>
            <circle cx="27.793" cy="5" r="2.832"/>
            <circle cx="34.749" cy="5" r="2.832"/>
            <circle cx="41.705" cy="5" r="2.832"/>
            <circle cx="48.661" cy="5" r="2.832"/>
            <circle cx="55.616" cy="5" r="2.832"/>
            <circle cx="62.572" cy="5" r="2.832"/>
            <circle cx="69.528" cy="5" r="2.832"/>
            <circle cx="76.484" cy="5" r="2.832"/>
            <circle cx="83.439" cy="5" r="2.832"/>
            <circle cx="90.396" cy="5" r="2.832"/>
            <circle cx="99.352" cy="5" r="4.573"/>
        </g>
        <path fill="#D8D8D8" d="M56.667 80.45H122.334V85.616H56.667z"/>
        <g fill="#D8D8D8">
            <path d="M.667.005H36.334V2.3329999999999997H.667zM.667 5.005H36.334V7.333H.667zM.667 10.005H36.334V12.333H.667zM.667 15.005H36.334V17.333000000000002H.667zM.667 20.005H36.334V22.333H.667zM.667 25.005H36.334V27.333H.667zM.667 30.005H36.334V32.333H.667zM.667 35.005H36.334V37.333000000000006H.667z" transform="translate(56 90)"/>
        </g>
        <g fill="#D8D8D8">
            <path d="M.584.005H26.334V2.3329999999999997H.584zM.584 5.005H26.334V7.333H.584zM.584 10.005H26.334V12.333H.584z" transform="translate(96 115)"/>
        </g>
    </g>
</svg>
