<svg xmlns="http://www.w3.org/2000/svg" width="140" height="140" viewBox="0 0 140 140">
    <g fill="none">
        <path fill="#C9EEAE" d="M139.704 69.85c.007 12.259-3.235 24.3-9.394 34.9l-60.456-34.9V0c38.578 0 69.85 31.273 69.85 69.85z"/>
        <path fill="#FFE477" d="M69.854 0v69.85l-60.48 34.924C-3.112 83.166-3.118 56.536 9.36 34.922 21.836 13.308 44.898-.005 69.854 0z"/>
        <path fill="#FFDAAA" d="M9.363 104.774L69.854 69.85l60.486 34.925c-12.473 21.618-35.532 34.937-60.49 34.937-24.956 0-48.016-13.32-60.487-34.937z"/>
        <path fill="#A7A9AC" d="M43.36 45.763H28.908c-7.98 0-14.452 6.471-14.452 14.452v19.269h38.712l4.643-2.68V60.215c0-7.98-6.47-14.452-14.451-14.452z"/>
        <path fill="#5EAC24" d="M79.489 96.344c0 5.32-4.313 9.634-9.635 9.634-5.32 0-9.634-4.313-9.634-9.634 0-5.32 4.314-9.634 9.634-9.634 5.322 0 9.635 4.314 9.635 9.634z"/>
        <path fill="#D80027" d="M52.41 24.014l.584-2.337H28.908v9.635h14.155c4.421-.001 8.274-3.01 9.346-7.298zM31.317 65.032L36.134 69.849 40.951 65.032 38.542 45.763 33.725 45.763z"/>
        <path fill="#939598" d="M24.09 57.806h2.41v21.678h-4.818V60.215c0-1.33 1.079-2.409 2.409-2.409zM45.768 57.806h2.409c1.33 0 2.408 1.079 2.408 2.41v19.268h-4.817V57.806z"/>
        <path fill="#F1F2F2" d="M36.134 43.355c3.991 0 7.226-3.236 7.226-7.226v-4.817H28.908v4.817c0 3.99 3.235 7.226 7.226 7.226z"/>
        <path fill="#2488FF" d="M114.8 53.808c-1.202-1.192-2.554-2.22-4.023-3.06l-9.611 9.467-9.61-9.466c-5.982 3.427-9.668 9.798-9.659 16.692v9.37l4.63 2.673h33.908V67.44c.001-5.111-2.027-10.014-5.636-13.633z"/>
        <path fill="#207AE5" d="M93.94 65.032v14.452h-4.817v-9.635c0-2.66 2.157-4.817 4.817-4.817zM108.392 65.032c2.66 0 4.817 2.157 4.817 4.817v9.635h-4.817V65.032z"/>
        <path fill="#5EAC24" d="M77.08 108.387H62.628c-7.98 0-14.451 6.47-14.451 14.452v13.413c14.087 4.596 29.269 4.596 43.355 0v-13.413c0-7.981-6.47-14.452-14.452-14.452z"/>
        <path fill="#F1F2F2" d="M69.854 132.473L74.671 127.656 72.263 108.387 67.446 108.387 65.037 127.656z"/>
        <path fill="#559B20" d="M57.811 120.43c-1.33 0-2.408 1.079-2.408 2.409v15.3c1.586.337 3.193.62 4.817.852v-18.56H57.81zM81.897 120.43H79.49v18.56c1.625-.228 3.23-.513 4.817-.852v-15.3c0-1.33-1.079-2.408-2.409-2.408z"/>
        <path fill="#FF9811" d="M101.166 21.677c-7.98 0-14.452 6.471-14.452 14.452v12.043h9.103c-1.203-1.317-1.872-3.034-1.877-4.817V33.72h14.452v9.635c-.005 1.783-.674 3.5-1.876 4.817h9.102V36.129c-.012-7.976-6.475-14.44-14.452-14.452z"/>
        <path fill="#F1F2F2" d="M108.392 33.72H93.94v9.635c0 3.99 3.236 7.226 7.226 7.226 3.992 0 7.226-3.236 7.226-7.226V33.72z"/>
    </g>
</svg>
