<svg xmlns="http://www.w3.org/2000/svg" width="140" height="140" viewBox="0 0 140 140">
    <g fill="none">
        <circle cx="70" cy="70" r="69.932" fill="#FFBA00"/>
        <g>
            <path fill="#64798A" d="M58.265.057H4.337C2.007.057.119 1.945.119 4.274V95.32c0 2.33 1.888 4.218 4.218 4.218h53.928c2.33 0 4.218-1.889 4.218-4.218V4.274c0-2.33-1.889-4.217-4.218-4.217z" transform="translate(38.7 20.203)"/>
            <path fill="#27A2DB" d="M3.163 10.01H59.437999999999995V84.35600000000001H3.163z" transform="translate(38.7 20.203)"/>
            <path fill="#2D93BA" d="M3.163 79.564H59.437999999999995V84.35499999999999H3.163z" transform="translate(38.7 20.203)"/>
            <g fill="#2F4859" transform="translate(38.7 20.203) translate(19.065 3.984)">
                <path d="M22.973.066H7.585c-.774 0-1.402.628-1.402 1.402 0 .774.628 1.402 1.402 1.402h15.388c.774 0 1.402-.628 1.402-1.402 0-.774-.628-1.402-1.402-1.402z"/>
                <circle cx="1.498" cy="1.467" r="1.401"/>
            </g>
            <path fill="#EBF0F3" d="M31.3 96.766c-2.688 0-4.874-2.187-4.874-4.874 0-2.689 2.186-4.876 4.875-4.876 2.688 0 4.875 2.187 4.875 4.876 0 2.687-2.187 4.874-4.875 4.874zm0-7.037c-1.191 0-2.161.97-2.161 2.163 0 1.191.97 2.161 2.162 2.161s2.162-.97 2.162-2.161c0-1.193-.97-2.163-2.162-2.163z" transform="translate(38.7 20.203)"/>
            <g fill="#EBF0F3">
                <path d="M39.433.047H44.269V2.7600000000000002H39.433zM.121.047H4.958V2.7600000000000002H.121z" transform="translate(38.7 20.203) translate(9.106 90.488)"/>
            </g>
        </g>
    </g>
</svg>
