<svg xmlns="http://www.w3.org/2000/svg" width="140" height="140" viewBox="0 0 140 140">
    <g fill="none">
        <ellipse cx="69.987" cy="70.033" fill="#FFBA00" rx="69.915" ry="69.798"/>
        <path fill="#FED080" d="M105.898 96.29l-22.787-2.91c-2.798-.356-4.894-2.733-4.894-5.549V77.513h-16.46V87.83c0 2.816-2.097 5.193-4.894 5.55l-22.787 2.91c-6.976.89-12.201 6.817-12.201 13.837v10.546c12.534 11.872 29.47 19.157 48.112 19.157 18.642 0 35.578-7.285 48.112-19.157v-10.546c0-7.02-5.225-12.947-12.201-13.838z"/>
        <path fill="#E0A410" d="M105.898 96.29l-22.787-2.91c-2.798-.356-4.894-2.733-4.894-5.549V77.513h-8.243v62.318h.013c18.642 0 35.578-7.285 48.112-19.157V110.13c0-7.021-5.225-12.948-12.201-13.839z"/>
        <path fill="#FED080" d="M83.413 81.794l-3.868 2.079c-5.943 3.195-13.097 3.195-19.04 0l-3.869-2.08C49.494 77.955 45.04 70.51 45.04 62.41V38.592H95.01V62.41c0 8.1-4.454 15.544-11.597 19.384z"/>
        <path fill="#FFC776" d="M95.01 38.592H69.974v47.677c3.291.008 6.584-.79 9.571-2.396l3.868-2.08C90.556 77.955 95.01 70.51 95.01 62.41V38.592z"/>
        <path fill="#283592" d="M105.898 96.29l-19.286-2.462c-4.158 4.428-10.066 7.198-16.625 7.198-6.56 0-12.468-2.77-16.625-7.198L34.076 96.29c-6.975.891-12.201 6.818-12.201 13.838v10.546c12.534 11.872 29.47 19.157 48.112 19.157 18.642 0 35.578-7.285 48.112-19.157v-10.546c0-7.02-5.225-12.947-12.201-13.838z"/>
        <path fill="#1A237E" d="M69.987 139.83c18.642 0 35.578-7.284 48.112-19.156v-10.546c0-7.02-5.226-12.947-12.201-13.838l-19.286-2.462c-4.158 4.428-10.066 7.198-16.625 7.198v38.805z"/>
        <path fill="#303F9E" d="M68.8 100.995c-6.083-.312-11.533-3.008-15.439-7.167L45.04 94.89l13.178 16.978 11.77-10.836c-.399 0-.794-.013-1.186-.037z"/>
        <path fill="#283592" d="M69.987 101.032l11.77 10.837L94.934 94.89l-8.323-1.063c-3.906 4.16-9.355 6.855-15.439 7.167-.392.024-.787.037-1.186.037z"/>
        <path fill="#E0A410" d="M98.458 45.971c0-15.697-12.747-28.423-28.471-28.423S41.516 30.274 41.516 45.97v20.965h5.096V53.009c5.931-6.804 14.139-11.196 23.375-11.196S87.43 46.205 93.362 53.01v13.927h5.096V45.97z"/>
        <path fill="#37474F" d="M100.188 61.837H94.33v-16.96c0-13.4-10.92-24.302-24.343-24.302S45.644 31.477 45.644 44.878v16.96h-5.858v-16.96c0-16.626 13.548-30.151 30.2-30.151 16.654 0 30.202 13.525 30.202 30.15v16.96z"/>
        <g fill="#263238">
            <path d="M3.51.187h-.013v5.849h.013c13.423 0 24.344 10.902 24.344 24.302v16.96h5.858v-16.96C33.712 13.713 20.164.188 3.51.188zM16.724 65.581H.06v-5.848h16.663c5.994 0 10.87-4.868 10.87-10.851h5.858c0 9.208-7.505 16.7-16.728 16.7z" transform="translate(66.477 14.54)"/>
        </g>
        <path fill="#3F51B4" d="M45.848 68.985h-6.405c-4.731 0-8.566-3.828-8.566-8.55v-9.941c0-4.722 3.835-8.55 8.566-8.55h6.405v27.041z"/>
        <path fill="#303F9E" d="M100.532 68.985h-6.406V41.943h6.406c4.73 0 8.565 3.829 8.565 8.552v9.94c0 4.722-3.835 8.55-8.565 8.55z"/>
        <path fill="#DC2C00" d="M68.425 83.435h-6.9c-3.415 0-6.183-2.764-6.183-6.173 0-3.41 2.768-6.173 6.183-6.173h6.9c3.414 0 6.183 2.764 6.183 6.173 0 3.41-2.768 6.173-6.183 6.173z"/>
        <path fill="#B21F02" d="M69.974 71.284v11.955c2.665-.686 4.634-3.102 4.634-5.978 0-2.875-1.969-5.29-4.634-5.977z"/>
    </g>
</svg>
