<svg xmlns="http://www.w3.org/2000/svg" width="140" height="140" viewBox="0 0 140 140">
    <g fill="none">
        <ellipse cx="69.987" cy="70.033" fill="#FFBA00" rx="69.915" ry="69.798"/>
        <ellipse cx="45.407" cy="54.854" fill="#F2D99C" rx="7.006" ry="6.994"/>
        <ellipse cx="94.566" cy="54.854" fill="#D1BB8B" rx="7.006" ry="6.994"/>
        <path fill="#F2D99C" d="M105.898 96.29l-22.787-2.91c-2.798-.356-4.894-2.733-4.894-5.549V77.513h-16.46V87.83c0 2.816-2.097 5.193-4.894 5.55l-22.787 2.91c-6.976.89-12.201 6.817-12.201 13.837v10.546c12.534 11.872 29.47 19.157 48.112 19.157 18.642 0 35.578-7.285 48.112-19.157v-10.546c0-7.02-5.225-12.947-12.201-13.838z"/>
        <path fill="#D8BF87" d="M105.898 96.29l-22.787-2.91c-2.798-.356-4.894-2.733-4.894-5.549V77.513h-8.243v62.318h.013c18.642 0 35.578-7.285 48.112-19.157V110.13c0-7.021-5.225-12.948-12.201-13.839z"/>
        <path fill="#FFECB3" d="M83.413 81.794l-3.868 2.079c-5.943 3.195-13.097 3.195-19.04 0l-3.869-2.08C49.494 77.955 45.04 70.51 45.04 62.41V38.592H95.01V62.41c0 8.1-4.454 15.544-11.597 19.384z"/>
        <path fill="#E5CA95" d="M95.01 38.592H69.974v47.677c3.291.008 6.584-.79 9.571-2.396l3.868-2.08C90.556 77.955 95.01 70.51 95.01 62.41V38.592z"/>
        <path fill="#FFF" d="M105.898 96.29l-19.286-2.462c-4.158 4.428-10.066 7.198-16.625 7.198-6.56 0-12.468-2.77-16.625-7.198L34.076 96.29c-6.975.891-12.201 6.818-12.201 13.838v10.546c12.534 11.872 29.47 19.157 48.112 19.157 18.642 0 35.578-7.285 48.112-19.157v-10.546c0-7.02-5.225-12.947-12.201-13.838z"/>
        <path fill="#F2F2F2" d="M69.987 139.83c18.642 0 35.578-7.284 48.112-19.156v-10.546c0-7.02-5.226-12.947-12.201-13.838l-19.286-2.462c-4.158 4.428-10.066 7.198-16.625 7.198v38.805z"/>
        <path fill="#E0E0E0" d="M68.8 100.995c-6.083-.312-11.533-3.008-15.439-7.167L45.04 94.89l13.178 16.978 11.77-10.836c-.399 0-.794-.013-1.186-.037z"/>
        <path fill="silver" d="M69.987 101.032l11.77 10.837L94.934 94.89l-8.323-1.063c-3.906 4.16-9.355 6.855-15.439 7.167-.392.024-.787.037-1.186.037z"/>
        <path fill="#4D4D4D" d="M94.722 65.489h4.389V45.883c0-16.071-13.078-29.093-29.19-29.037-16.074.056-28.982 13.304-28.982 29.352v19.29h4.1V51.94c19.03 2.46 34.093-11.13 34.093-11.13s6.604 12.773 15.59 15.038v9.64z"/>
        <path fill="#333" d="M69.974 16.847V46.91c5.697-2.98 9.158-6.1 9.158-6.1s6.604 12.772 15.59 15.037v9.64h4.388V45.884c0-16.054-13.05-29.064-29.136-29.036z"/>
    </g>
</svg>
