<svg xmlns="http://www.w3.org/2000/svg" width="140" height="140" viewBox="0 0 140 140">
    <g fill="none">
        <path fill="#FFBA00" d="M140 70c0 38.66-31.34 70-70 70S0 108.66 0 70 31.34 0 70 0s70 31.34 70 70z"/>
        <path fill="#FFF" d="M22.422 32.949L117.578 32.949 117.578 107.051 22.422 107.051z"/>
        <path fill="#F92814" d="M28.164 45.938L111.836 45.938 111.836 100.352 28.164 100.352z"/>
        <path fill="#FE6A16" d="M36.162 39.136c0 2.283-1.852 4.135-4.136 4.135-2.283 0-4.135-1.852-4.135-4.135 0-2.284 1.852-4.136 4.135-4.136 2.284 0 4.136 1.852 4.136 4.136z"/>
        <path fill="#4A7AFF" d="M58.046 39.136c0 2.283-1.852 4.135-4.136 4.135-2.285 0-4.136-1.852-4.136-4.135 0-2.284 1.851-4.136 4.136-4.136 2.284 0 4.136 1.852 4.136 4.136z"/>
        <path fill="#FF9D00" d="M46.895 39.136c0 2.283-1.852 4.135-4.136 4.135s-4.136-1.852-4.136-4.135c0-2.284 1.852-4.136 4.136-4.136 2.283 0 4.136 1.852 4.136 4.136z"/>
        <path fill="#FFF" d="M70 52.376c-15.934 0-29.902 8.415-37.706 21.042C40.098 86.045 54.066 94.46 70 94.46c15.934 0 29.902-8.415 37.706-21.042C99.902 60.791 85.934 52.376 70 52.376z"/>
        <path fill="#65B1FC" d="M87.24 73.268c0 9.521-7.719 17.24-17.24 17.24-9.521 0-17.24-7.719-17.24-17.24 0-9.52 7.719-17.239 17.24-17.239 9.521 0 17.24 7.718 17.24 17.24z"/>
        <path fill="#4A98F7" d="M70 56.029l-.097.002v34.475l.097.002c9.521 0 17.24-7.719 17.24-17.24 0-9.52-7.719-17.239-17.24-17.239z"/>
        <path fill="#414952" d="M80.137 73.268c0 5.6-4.538 10.138-10.137 10.138s-10.137-4.539-10.137-10.138S64.4 63.131 70 63.131s10.137 4.538 10.137 10.137z"/>
        <path fill="#333940" d="M70 63.131c-.033 0-.065.002-.097.003v20.269c.032 0 .064.003.097.003 5.6 0 10.137-4.538 10.137-10.137 0-5.6-4.538-10.138-10.137-10.138z"/>
    </g>
</svg>
